<?xml version="1.0" standalone="no"?>
<!DOCTYPE svg PUBLIC "-//W3C//DTD SVG 20010904//EN"
 "http://www.w3.org/TR/2001/REC-SVG-20010904/DTD/svg10.dtd">
<svg version="1.0" xmlns="http://www.w3.org/2000/svg"
 width="1280.000000pt" height="870.000000pt" viewBox="0 0 1280.000000 870.000000"
 preserveAspectRatio="xMidYMid meet">
<metadata>
Created by potrace 1.15, written by Peter Selinger 2001-2017
</metadata>
<g transform="translate(0.000000,870.000000) scale(0.100000,-0.100000)"
fill="#000000" stroke="none">
<path d="M6735 8678 c-82 -20 -120 -20 -298 0 -129 15 -293 -15 -378 -69 -25
-16 -59 -29 -75 -29 -42 0 -87 -31 -132 -92 -48 -64 -62 -104 -62 -173 0 -38
6 -60 21 -78 21 -28 141 -90 254 -133 154 -57 196 -92 257 -210 40 -77 35
-104 -24 -132 -24 -12 -76 -24 -118 -27 -123 -11 -228 -41 -345 -99 -195 -96
-358 -216 -499 -367 l-81 -88 -210 -10 c-116 -6 -250 -17 -300 -26 -209 -37
-408 -112 -546 -205 -86 -58 -147 -86 -250 -115 -166 -46 -204 -87 -197 -211
3 -68 9 -83 78 -219 64 -126 75 -155 78 -208 5 -87 -21 -151 -123 -296 -99
-140 -231 -375 -355 -627 -99 -202 -125 -234 -191 -234 -51 0 -68 9 -284 153
-209 139 -293 205 -392 310 -87 91 -124 146 -338 497 -322 526 -444 686 -710
932 -316 292 -353 296 -915 107 -247 -82 -483 -196 -555 -266 -42 -40 -55 -95
-31 -122 20 -22 121 -52 271 -81 181 -35 305 -70 395 -112 74 -34 97 -52 180
-136 171 -176 296 -381 374 -614 40 -120 63 -232 101 -488 77 -516 225 -1026
410 -1406 137 -282 300 -480 557 -678 70 -54 164 -136 208 -183 75 -79 88 -99
169 -267 49 -99 113 -215 142 -256 103 -146 314 -347 555 -532 136 -104 192
-158 343 -327 92 -104 229 -225 393 -351 125 -96 126 -98 111 -120 -28 -39
-84 -183 -93 -235 -67 -408 696 -728 1980 -830 107 -9 339 -18 515 -22 804
-15 1551 76 2072 253 319 108 508 246 608 444 53 105 43 227 -32 380 -33 69
-35 75 -18 85 124 73 365 279 486 415 35 40 172 165 304 278 278 238 424 383
521 516 38 52 75 95 83 96 7 0 28 -13 47 -30 41 -36 93 -47 147 -30 63 19 89
55 137 192 23 68 66 177 95 243 29 66 65 166 79 223 55 211 136 419 233 602
114 214 241 397 526 758 157 199 213 282 400 594 236 393 341 609 397 823 65
243 83 373 84 585 0 164 -3 211 -22 296 -78 362 -260 663 -581 963 -65 62
-127 128 -136 147 -9 19 -23 76 -32 127 -18 107 -31 133 -81 154 -46 19 -112
11 -196 -23 -89 -36 -227 -61 -433 -78 -228 -19 -323 -40 -510 -111 -203 -78
-260 -106 -340 -169 -97 -77 -222 -241 -328 -431 -104 -187 -129 -426 -79
-746 42 -266 34 -356 -35 -429 -64 -67 -140 -64 -270 12 -65 37 -80 42 -159
47 l-87 6 -3 33 c-4 38 36 130 100 231 150 237 130 325 -87 376 -124 28 -219
66 -418 166 -318 160 -424 187 -757 196 l-205 5 -105 108 c-119 122 -139 138
-268 209 -201 111 -351 169 -535 205 -65 13 -120 26 -124 29 -11 11 64 152
106 199 49 55 99 81 220 113 107 29 164 55 209 99 48 44 64 81 64 145 0 78
-25 133 -86 188 -71 64 -147 97 -321 137 -307 72 -417 80 -560 44z m4712
-1163 c337 -64 658 -303 788 -588 84 -183 136 -506 116 -719 -25 -263 -77
-406 -279 -768 -161 -288 -276 -465 -610 -934 -274 -384 -401 -575 -520 -776
-97 -165 -116 -190 -148 -190 -32 0 -39 15 -63 128 -27 127 -64 241 -146 447
-135 341 -214 503 -397 813 -102 174 -118 206 -118 239 0 30 33 91 53 98 98
34 133 53 178 93 64 57 117 137 159 240 90 220 113 248 230 287 140 47 198 97
245 213 44 108 27 212 -48 290 -39 41 -80 63 -174 91 -80 24 -141 65 -189 128
-87 113 -64 418 42 578 106 161 344 298 584 338 61 10 225 6 297 -8z"/>
</g>
</svg>
